<svg width="24" height="24" viewBox="0 0 24 24" fill="none" xmlns="http://www.w3.org/2000/svg">
<g clip-path="url(#clip0_376_583)">
<path d="M12.0003 24.0006C18.6279 24.0006 24.0006 18.6279 24.0006 12.0003C24.0006 5.37272 18.6279 0 12.0003 0C5.37272 0 0 5.37272 0 12.0003C0 18.6279 5.37272 24.0006 12.0003 24.0006Z" fill="#0C1C52"/>
<path d="M7.94638 12.0415C8.07371 12.587 8.19106 13.0869 8.30715 13.5869C8.40203 13.9939 8.48941 14.4021 8.59489 14.8059C8.61487 14.8814 8.70288 14.9395 8.75968 15.0056C8.78839 14.9239 8.84956 14.839 8.84082 14.761C8.73845 13.8185 8.62922 12.8766 8.51063 11.936C8.49316 11.798 8.5381 11.7462 8.65294 11.7106C8.9307 11.6251 9.20721 11.5365 9.48559 11.4479C9.49058 11.4366 9.50057 11.4235 9.50182 11.4098C9.52512 11.0594 9.71237 10.8842 10.0636 10.8842C10.3176 10.8842 10.5716 10.8817 10.8257 10.8849C11.0916 10.888 11.1908 10.9735 11.1783 11.2294C11.1696 11.4135 11.2252 11.4928 11.4112 11.5296C11.629 11.5727 11.8375 11.6626 12.0509 11.7281C12.1633 11.7625 12.1939 11.8261 12.1789 11.9453C12.0697 12.7967 11.9685 13.6487 11.8649 14.5007C11.8531 14.5968 11.8318 14.6961 11.8431 14.7903C11.8518 14.8652 11.903 14.9345 11.9355 15.0063C11.9898 14.9451 12.0728 14.8914 12.0927 14.8209C12.1689 14.5481 12.2251 14.2697 12.2887 13.9939C12.4279 13.3909 12.5665 12.7873 12.7063 12.185C12.7126 12.1576 12.7313 12.1326 12.7675 12.0583C13.0602 12.2868 13.3573 12.4846 13.6145 12.7249C14.5626 13.6125 15.1144 14.7029 15.2198 16.0049C15.2354 16.2003 15.2941 16.3407 15.4633 16.4462C15.6018 16.5324 15.726 16.6428 15.8534 16.7471C15.9832 16.8532 16.0219 16.998 15.9102 17.1203C15.7211 17.3269 15.5288 17.5473 15.2954 17.694C14.5994 18.1302 13.808 18.3025 13.0078 18.4192C11.463 18.6446 9.91127 18.657 8.35896 18.5141C7.48762 18.4342 6.62688 18.2925 5.81671 17.938C5.44408 17.7751 5.09517 17.5741 4.84675 17.2389C4.65263 16.9768 4.65076 16.837 4.92165 16.6603C5.28242 16.4244 5.37542 16.1029 5.43472 15.696C5.66941 14.0956 6.54574 12.9134 7.94513 12.0415H7.94638Z" fill="white"/>
<path d="M16.1286 17.523C16.176 17.4337 16.1972 17.3956 16.2172 17.3563C16.4301 16.9431 16.4013 16.6554 16.0256 16.3957C15.7197 16.1847 15.6155 15.9357 15.5543 15.5787C15.251 13.8017 14.2748 12.4884 12.7094 11.6052C12.642 11.5671 12.5589 11.5134 12.5346 11.4479C12.3486 10.9442 12.1426 10.4442 12.0059 9.9268C11.6932 8.74337 12.0683 7.76717 12.9803 6.97884C13.0196 6.94451 13.062 6.91393 13.1063 6.88584C13.1238 6.8746 13.1482 6.87523 13.233 6.85525C13.205 6.97322 13.1968 7.06747 13.1606 7.14986C12.9803 7.56494 12.8423 7.98812 12.8667 8.44876C12.8704 8.51368 12.8773 8.57859 12.8841 8.66348C12.9297 8.64538 12.9634 8.64288 12.9778 8.62415C13.2462 8.28148 13.6144 8.08487 14.0101 7.93819C14.7916 7.6492 14.9576 7.138 14.7922 6.389C14.7123 6.02573 14.585 5.6712 14.5288 5.30544C14.4758 4.95902 14.5575 4.61885 14.7123 4.30676C14.7373 4.30676 14.7623 4.30676 14.7872 4.30676C14.8035 4.36918 14.8384 4.43347 14.8334 4.49464C14.7879 5.06014 15.0694 5.46834 15.4695 5.81289C15.8646 6.15368 16.3083 6.4458 16.6647 6.8228C17.6809 7.89824 17.6416 9.30762 16.6167 10.3781C16.4176 10.5865 16.2322 10.8162 16.0843 11.0628C15.9975 11.207 15.9788 11.4017 15.9638 11.5765C15.9488 11.7562 16.0449 11.8967 16.2222 11.9535C16.4045 12.0115 16.578 11.9647 16.6747 11.8012C16.7515 11.6714 16.7815 11.5128 16.8245 11.3649C16.842 11.3056 16.8408 11.2407 16.8545 11.1196C17.1616 11.4067 17.244 11.7244 17.2171 12.0596C17.1909 12.3804 17.1092 12.6969 17.0536 13.0052C17.5136 12.8822 17.8806 12.2699 17.807 11.7544C17.6622 10.7363 17.9218 9.84503 18.6715 9.11787C18.7264 9.06482 18.7944 9.02425 18.8562 8.97806C18.8762 8.98867 18.8968 8.99928 18.9168 9.00989C18.9018 9.08791 18.9011 9.17218 18.8693 9.24208C18.5179 10.0048 18.5891 10.7189 18.9124 11.5035C19.5958 13.1631 19.3418 14.7398 18.2077 16.146C17.699 16.7765 17.0424 17.2121 16.2771 17.4799C16.2441 17.4911 16.2103 17.4992 16.1273 17.523H16.1286Z" fill="white"/>
</g>
<defs>
<clipPath id="clip0_376_583">
<rect width="24" height="24" fill="white"/>
</clipPath>
</defs>
</svg>
