<svg width="24" height="24" viewBox="0 0 24 24" fill="none" xmlns="http://www.w3.org/2000/svg">
<rect width="24" height="24" rx="12" fill="#0C1C52"/>
<path d="M15.9189 4H8.08108C7.4848 4 7 4.5125 7 5.14286V18.8571C7 19.4875 7.4848 20 8.08108 20H15.9189C16.5152 20 17 19.4875 17 18.8571V5.14286C17 4.5125 16.5152 4 15.9189 4ZM15.7838 18.7143H8.21622V5.28571H15.7838V18.7143ZM11.3243 16.8929C11.3243 17.0823 11.3955 17.264 11.5222 17.3979C11.6489 17.5319 11.8208 17.6071 12 17.6071C12.1792 17.6071 12.3511 17.5319 12.4778 17.3979C12.6045 17.264 12.6757 17.0823 12.6757 16.8929C12.6757 16.7034 12.6045 16.5217 12.4778 16.3878C12.3511 16.2538 12.1792 16.1786 12 16.1786C11.8208 16.1786 11.6489 16.2538 11.5222 16.3878C11.3955 16.5217 11.3243 16.7034 11.3243 16.8929Z" fill="white"/>
</svg>
