<svg width="24" height="24" viewBox="0 0 24 24" fill="none" xmlns="http://www.w3.org/2000/svg">
<path d="M15 11V11.01M5.173 8.378C4.7344 8.0409 4.39754 7.5891 4.19966 7.07253C4.00178 6.55596 3.95058 5.99473 4.05172 5.45088C4.15285 4.90703 4.40239 4.40173 4.77275 3.99083C5.14311 3.57993 5.61987 3.27943 6.15034 3.12255C6.6808 2.96566 7.24431 2.9585 7.77859 3.10186C8.31287 3.24521 8.79711 3.5335 9.17779 3.93485C9.55847 4.33621 9.82077 4.83501 9.93569 5.37611C10.0506 5.91722 10.0137 6.47957 9.829 7.001" stroke="#0C1C52" stroke-linecap="round" stroke-linejoin="round"/>
<path d="M16 4V7.803C17.2376 8.51912 18.1799 9.65245 18.658 11H19.999C20.2642 11 20.5186 11.1054 20.7061 11.2929C20.8936 11.4804 20.999 11.7348 20.999 12V14C20.999 14.2652 20.8936 14.5196 20.7061 14.7071C20.5186 14.8946 20.2642 15 19.999 15H18.657C18.321 15.95 17.75 16.8 16.999 17.473V19.5C16.999 19.8978 16.841 20.2794 16.5597 20.5607C16.2784 20.842 15.8968 21 15.499 21C15.1012 21 14.7196 20.842 14.4383 20.5607C14.157 20.2794 13.999 19.8978 13.999 19.5V18.917C13.6685 18.9724 13.3341 19.0001 12.999 19H8.999C8.66394 19.0001 8.32945 18.9724 7.999 18.917V19.5C7.999 19.8978 7.84097 20.2794 7.55966 20.5607C7.27836 20.842 6.89683 21 6.499 21C6.10118 21 5.71964 20.842 5.43834 20.5607C5.15704 20.2794 4.999 19.8978 4.999 19.5V17.473C4.09296 16.663 3.45428 15.5969 3.16748 14.4159C2.88069 13.2348 2.95931 11.9946 3.39294 10.8592C3.82657 9.72387 4.59476 8.74697 5.59583 8.05783C6.59691 7.36869 7.78366 6.9998 8.999 7H11.499L16 4Z" stroke="#0C1C52" stroke-linecap="round" stroke-linejoin="round"/>
</svg>
