<svg width="24" height="24" viewBox="0 0 24 24" fill="none" xmlns="http://www.w3.org/2000/svg">
<rect width="24" height="24" rx="12" fill="#0C1C52"/>
<path d="M7.91418 6.88582L9.99418 8.96582C10.5894 8.5729 11.2868 8.36344 12 8.36344C12.7132 8.36344 13.4106 8.5729 14.0058 8.96582L16.0858 6.88582C14.9255 5.95939 13.4848 5.45479 12 5.45479C10.5152 5.45479 9.0745 5.95939 7.91418 6.88582ZM17.1142 7.91418L15.0342 9.99418C15.4271 10.5894 15.6366 11.2868 15.6366 12C15.6366 12.7132 15.4271 13.4106 15.0342 14.0058L17.1142 16.0858C18.0406 14.9255 18.5452 13.4848 18.5452 12C18.5452 10.5152 18.0406 9.0745 17.1142 7.91418ZM16.0858 17.1142L14.0058 15.0342C13.4106 15.4271 12.7132 15.6366 12 15.6366C11.2868 15.6366 10.5894 15.4271 9.99418 15.0342L7.91418 17.1142C9.0745 18.0406 10.5152 18.5452 12 18.5452C13.4848 18.5452 14.9255 18.0406 16.0858 17.1142ZM6.88582 16.0858L8.96582 14.0058C8.5729 13.4106 8.36344 12.7132 8.36344 12C8.36344 11.2868 8.5729 10.5894 8.96582 9.99418L6.88582 7.91418C5.95939 9.0745 5.45479 10.5152 5.45479 12C5.45479 13.4848 5.95939 14.9255 6.88582 16.0858ZM6.34327 6.34327C9.46764 3.21891 14.5324 3.21891 17.6567 6.34327C20.7811 9.46764 20.7811 14.5324 17.6567 17.6567C14.5324 20.7811 9.46764 20.7811 6.34327 17.6567C3.21891 14.5324 3.21891 9.46764 6.34327 6.34327ZM13.5433 10.4575C13.3413 10.2521 13.1007 10.0888 12.8353 9.97694C12.5699 9.86506 12.285 9.80684 11.9969 9.80564C11.7089 9.80443 11.4235 9.86026 11.1572 9.96991C10.8909 10.0796 10.6489 10.2408 10.4452 10.4445C10.2415 10.6481 10.0802 10.8901 9.97047 11.1564C9.86076 11.4227 9.80486 11.708 9.806 11.9961C9.80714 12.2841 9.86529 12.569 9.9771 12.8344C10.0889 13.0999 10.2522 13.3405 10.4575 13.5425C10.8702 13.933 11.419 14.147 11.9871 14.1391C12.5552 14.1312 13.0978 13.902 13.4995 13.5002C13.9013 13.0985 14.1304 12.5559 14.1383 11.9878C14.1462 11.4197 13.9322 10.8709 13.5418 10.4582" fill="white"/>
</svg>
