<svg width="24" height="24" viewBox="0 0 24 24" fill="none" xmlns="http://www.w3.org/2000/svg">
<rect width="24" height="24" rx="12" fill="#0C1C52"/>
<path d="M17 5H19V7H17V5ZM17 8H19V10H17V8ZM14 5H16V7H14V5ZM14 8H16V10H14V8Z" fill="white"/>
<path d="M18 12V15H6V7H12V6H6C5.73478 6 5.48043 6.10536 5.29289 6.29289C5.10536 6.48043 5 6.73478 5 7V15C5 15.2652 5.10536 15.5196 5.29289 15.7071C5.48043 15.8946 5.73478 16 6 16H10V18H8V19H16V18H14V16H18C18.2652 16 18.5196 15.8946 18.7071 15.7071C18.8946 15.5196 19 15.2652 19 15V12H18ZM13 18H11V16H13V18Z" fill="white"/>
</svg>
