<svg width="32" height="32" viewBox="0 0 32 32" fill="none" xmlns="http://www.w3.org/2000/svg">
<path d="M20 13.3334L19.0133 13.1694C18.9895 13.3126 18.9972 13.4593 19.0358 13.5993C19.0744 13.7393 19.1431 13.8692 19.2369 13.98C19.3308 14.0907 19.4477 14.1797 19.5795 14.2408C19.7113 14.3018 19.8548 14.3334 20 14.3334V13.3334ZM5.33331 13.3334V12.3334C5.0681 12.3334 4.81374 12.4387 4.62621 12.6263C4.43867 12.8138 4.33331 13.0681 4.33331 13.3334H5.33331ZM7.99998 27.6667H23.1466V25.6667H7.99998V27.6667ZM24.7466 12.3334H20V14.3334H24.7466V12.3334ZM20.9866 13.4974L22.0613 7.0507L20.088 6.72136L19.0133 13.1694L20.9866 13.4974ZM19.76 4.33336H19.4746V6.33336H19.7586L19.76 4.33336ZM15.3133 6.56003L11.96 11.5907L13.624 12.7L16.9773 7.66936L15.3133 6.56003ZM10.5733 12.3334H5.33331V14.3334H10.5733V12.3334ZM4.33331 13.3334V24H6.33331V13.3334H4.33331ZM26.7426 24.72L28.3426 16.72L26.3826 16.3267L24.7826 24.3267L26.7426 24.72ZM11.96 11.5907C11.8078 11.8191 11.6017 12.005 11.3598 12.1346C11.1179 12.2641 10.8477 12.332 10.5733 12.332V14.332C11.8 14.332 12.944 13.72 13.624 12.7L11.96 11.5907ZM22.0613 7.0507C22.1169 6.71652 22.099 6.37292 22.0089 6.04635C21.9189 5.71978 21.7588 5.41674 21.5398 5.15829C21.3208 4.89983 21.0481 4.69216 20.7408 4.5497C20.4334 4.40725 20.0987 4.33342 19.76 4.33336L19.7586 6.33336C19.807 6.33348 19.856 6.34411 19.8998 6.36451C19.9437 6.38491 19.9825 6.41459 20.0137 6.4515C20.0449 6.48841 20.0677 6.53166 20.0805 6.57826C20.0934 6.62486 20.0959 6.67369 20.088 6.72136L22.0613 7.0507ZM24.7466 14.332C25.8 14.332 26.5866 15.2947 26.3813 16.3254L28.3426 16.7187C28.4487 16.1868 28.4355 15.6367 28.304 15.1105C28.1724 14.5844 27.9258 14.094 27.5818 13.6746C27.2378 13.2553 26.8051 12.9175 26.3149 12.6856C25.8246 12.4536 25.289 12.3333 24.7466 12.3334V14.332ZM23.1466 27.6667C23.9943 27.6669 24.8157 27.372 25.4714 26.8348C26.127 26.2976 26.5762 25.5498 26.7426 24.7187L24.7826 24.3254C24.7071 24.7035 24.5027 25.0437 24.2044 25.2881C23.9061 25.5324 23.5323 25.6671 23.1466 25.6667V27.6667ZM19.4746 4.33336C18.6515 4.33342 17.8412 4.53536 17.1155 4.92379C16.3898 5.31222 15.7712 5.87381 15.3146 6.5587L16.9773 7.66936C17.2514 7.25824 17.6227 6.91984 18.0584 6.68677C18.4941 6.4537 18.9806 6.33318 19.4746 6.33336V4.33336ZM7.99998 25.6667C7.07998 25.6667 6.33331 24.92 6.33331 24H4.33331C4.33331 24.9725 4.71962 25.9051 5.40725 26.5928C6.09489 27.2804 7.02752 27.6667 7.99998 27.6667V25.6667Z" fill="#12369C"/>
<path d="M10.6666 13.3333V26.6666" stroke="#12369C" stroke-width="1.5"/>
</svg>
